<svg version="1.1" id="Layer_1" xmlns="http://www.w3.org/2000/svg" x="0" y="0" viewBox="0 0 288 288" xml:space="preserve">
  <style>
    .st2{fill-rule:evenodd;clip-rule:evenodd;fill:#303f42}.st3{fill:#f0ce41}.st3,.st8{fill-rule:evenodd;clip-rule:evenodd}.st9{fill:#f7a41d}
  </style>
  <path id="shape0" d="M148.2 73.8L147 59.9l-4.1-13.6-8.5-14.4-9.4-11.2-11.3-8.8-12.8-6.3-14.6-3.9-11.8-1-11.7 1.4-15.6 4.1-11.4 5.1-11 8.5-10.2 11.6-8 15.4-3.2 7.9-2.2 13.5v13.9l1.6 10.5 4.5 12.3 7.5 13.7 12 12.1 9.6 7.2 13.6 6.7 7.4 2.2 8.9.4 4.6 1.1 10.9.1 12.2-4.5 12.7-7.3 18.3-14 15.6-18.6 6.9-11.1 1.3-7.3v-6s-.2-1.9-.6-5.8z" fill-rule="evenodd" clip-rule="evenodd" fill="#c0fdf1" fill-opacity=".4863"/>
  <path id="shape1" d="M154.4 78.6l6.2 6.8 11.9 24.5 6.2 13.2 1 7.4v6.6l-2.6 2.6-.8 1.5 1 15.3-.1 5.4 7-3.8 7-4.6 2.6 10.2-.8 27.6.5 5.7 4.8 27.5.8 17.9-.8 14.4-3.4 3.8-8.9 2.5-5.7-.9-15-13.4-12.5-9.3-8.5-7.8-3.7-5.9-.4.4-1.1.9-4.1 8.4-8.1 8.8-1.4 1 4.4 11.8.6 8.8-4 4.7-5.8 3.5-3.8-.3-7.3-3.4-9.2-6.7-9-9-5.4-10.3-.3-5.3 2.7-10.9 4.5-8.6 6.2-11.4 1.3-2.1 36.8-20.1-1.1-.8-8.3-1.7-5-1.2-5.1-3.6-2.9-3.8-1.7-5.2-.8-4-3.9-3.5-4.7-2.5-6.1.9-3.5 2.1-.9-1.3-1.7-1.8-2.4-.3-4 1.9-4.8 3.6-1.7.2-5.6-5.2-2.9-5.3.5-1.5 7.1 1.5 14.4-1.2 11.6-5.8 17.2-10.7 12.7-11.3 9-9.5 5.1-7.2 5.5-10.8 1.8-5.6.8-6.2c-.3-.1-.7-2.6-1.4-7.6z" fill-rule="evenodd" clip-rule="evenodd" fill="#f7a41d"/>
  <path id="shape2" class="st2" d="M77.9 185.9l-20.8 17.9-9-.7-2.6-5 3.3-4.4 3 2 1.4.3 4.5-2.8 6.9-1.2 2.4-2.9.7-3.7 4.8-.7 3.6-1.7c-.2.2.4 1.1 1.8 2.9z"/>
  <path id="shape3" class="st2" d="M84.6 201.1l6.3-2.8 6.4-2.4 6 1.6 9.1-9.4 3.9-6.2 1-2.8 2.2 1.1 4.6 3 9.7 1.4 2.3 1.3-45.8 25.3-2.6-2-3.5-5.5c.1.2.2-.7.4-2.6z"/>
  <path id="shape4" class="st2" d="M148.3 69.8l15.2-14.3 8.8-1.8 27.5 11.7 4.9 2.7 4.7 7.5 24.1 48.8.6 6.3-2 5.2-5.4 4.7 3.2 1.6c2.5.3 4.6 1.1 6.4 2.3 1.8 1.2 3.4 2.9 5 5.1l-.2 7.8-2.7 8.4-5 5.4-9.1 4.9-6.1 1.1-6.7-.9-3.8-3.3-1.2-7.1-.1-5.6-5.6 4.4-3.8 1h-3.6l-1.5-9.7-1.3-2.8-14.1 9.3.1-16.2-1.2-6.5 3.8-3.5.2-11.9-11.9-24.2-7.6-16.5-6.2-5.4-1.8-3.2-2.3-2.4-1.5-.9c.3.3.2-.4.2-2z"/>
  <path id="shape5" class="st3" d="M148.3 72.7l2.7.9 2.8 6 1.4 9.3-2.1 7.6-5.1 11-6.7 9.7-7.7 7.8-8.2 7.8-12.6 9.2-9.4 5.2-13.1 6.5-9 .8L71 154l-3.6-3-1.9-2.9 2.5-.6 7.1 1.2 6.4-.6 9.8-2.8 9.1-5 11.8-7.5 16-13.6 12.8-15.7 6.4-10.8 1.5-7.6-.1-7.1c0 .1-.1-1.7-.5-5.3z"/>
  <path id="shape6" class="st3" d="M117.5 178.8l-4.1-5.8-1.2-6-.4-1.6-6.5-4.8-3.6-1-5.4 1.6-3 1.5 1.9 3.8 1.4 2.5-3.9 4-7.9 5.5-1.9 1-2-4.1-2.8-2-1.6-.3-1.4-3.7 2.5-3.2L79 165l-6.2-4.9-3-6.1-1.8-.7-7.2 1.3-3.4.8 1 3.4 1.8 1.4-9.3 7.8-1.7 3-3.1-3.4-2.3-.7-5.4 7.1.9 3.3 1.9 4.3-.2 3.2.7 3.3 9.6 7.7h1.9l5.1-2.5 5-1.1 3.6-2.1.9-4.2 1.7-.7 6.4-1.9 2.5 2.2 1.4 2.4-1.8 3.2 3 4.5 2.7 2.9 2.8 1.5 10.8-4.1 4.9 1.3 2-.3 8.7-9 3.7-5.5c-.1-.1.2-1.3.9-3.6z"/>
  <path id="shape7" class="st3" d="M181.4 263.5l8.1-1.1 4.9-2.1 2.5-2.3 1.8 1.8 2.7 7.2v6.1l-11.1 8.4-7.9 5.8-5.1.4-2.2-.8-2.1-2.6 6-14.7c.1 0 .9-2.1 2.4-6.1z"/>
  <path id="shape8" class="st3" d="M130.2 266.3l2.8 3 1.7 8.7-.6 5.8-2.2 2.6-3.7 1.3-30-.1c-2.3-2.9-2.8-5-1.6-6.3s3.1-2.7 5.8-4.1l8.1-6 4.8 2.4 4.8.6 4-2.3c.1 0 2.1-1.9 6.1-5.6z"/>
  <path id="shape9" class="st2" d="M83.4 179.3l13.1-9.8-1-2.4-2.1-4.7-2.1-3.2-1.7-.5-8.1 4.7-5 3.8-1.3 2.1 1.3 3.7 2.2.8 2.2 2.2c.2-.1 1 1 2.5 3.3z"/>
  <path id="shape10" class="st2" d="M50 170.2l4.2-5.6 5.4-4.2-2.7-5.2-1.3-3.9-1.4-.8-5.4 3.5-5.8 5-2.7 3.4.7 2.6 3.6 2.1 2.2 1.4c.1 0 1.1.6 3.2 1.7z"/>
  <path id="shape11" d="M206.5 160.3l-4.6 4-3.4 1.7-5.5-.5-.3 24-.6 3.8 1.7 5.8.6 2.8 21 2.1 11.6-.4 9.1-3.3 14-6.6 13.9-9.9 9.5-11.4 7.3-11.5 3.5-13.1 1.8-10.9.8-11.5-1.8-10.2-4.2-14.7-5-10-9.4-11.6-5.8-5.8-9.2-6.1-11.2-5.7-11.2-3.6-6.4-1.2-3.5.5-4.4 3.1-2.5 2.8-.3 1.1 4.4.4 6.2 3.4 5.9 4.9 2.4 2.2 4.3-2.6 2.6-.7.6 3.6-1.2 4.3-1.4 1.7 1.4 1.2 3.9 1.6 3.9.5 4.9-.2 1.4.2 1.1.5 3.9 7.9 1.1 2.5-1.2 2.5-2.8 1.8-4.3 2-4.7-.1 2.2 3.6 5.6 3.5 7.8 1 2 .4 2.4 5.8-.4 7.7-5 3.2-4.4.2-5.1-1.7.3 1.7 3.4 5.6 3.8 3.6 4.5 3.2-1 2.6-4.7 6-4.5.3-1.2-.1-3.3-3.3-1.8-8.9-2.9 4.3-2 8.2 1.2 2.3-.3 10.2-7 9.7-9.8 5.9-7.1 1.1-6.4-1.5-3.6-5.1-.9-5.4c-.1-.2.1-2 .3-5.4z" fill-rule="evenodd" clip-rule="evenodd" fill="#728942"/>
  <path id="shape12" d="M148.6 74.4l-3.7-2.8-6.3-.8 5.8-6.4-1.4-.6-14.5 1-5.2-.5-1.8-2.3 6.8-3.1 5.9-5.5.6-2.7-5.6 1.7-17 .6-7.7-2-7.5-3.8-26.5-.8-2.7-.3-3.5 3.9L49 62.4l-13.4 7.1-15.2 5.1-7.6 2.6-3 7.7 1.3 8.7.7 4.7 3.2 3.9 1.9 2.2 2 4.3 6.7 4.5 7.3 3.4 6.4 1.8 5.6 4.1 9 8.3 6.9 3.4 6.8 3.7 3.8 4.4 10.3 5.3 9.1-2.5 11.2-5.3 11.3-7.9 12.4-9.9 6.8-7.6 11-13.8 4.4-9.3 1-7.4-.3-6.2v-3.3z" fill-rule="evenodd" clip-rule="evenodd" fill="#9ca76c"/>
  <path id="shape13" d="M88.3 60.4l-12.1 4.1-8.2 5.3-.1 5.2 3.3 5.6 5.2 3.1h6l7.7-2.9 3.1-3.5 1.2-6.9-1.5-5.9-2-2.5c-.1-.1-.9-.6-2.6-1.6z" fill-rule="evenodd" clip-rule="evenodd" fill="#edf7ce"/>
  <path id="shape14" d="M82.1 147.7l-7.1-3-5.7-3.8-1.9 3.3-.8 2.7.8.3 4.8 1.2 6.1-.1c0 .1 1.3-.1 3.8-.6z" fill-rule="evenodd" clip-rule="evenodd" fill="#dbcb88"/>
  <path class="st8" d="M148.9 79.2c.1-1.4.4-6.4.4-8.6 0-2.2-.6-6.5-.9-7.8-.2-.9-.9-4-2-9.2-1.7-4.7-2.6-7.4-2.8-8.3-.3-1.3-4.6-9.5-5.9-11-1.2-1.5-6.2-8.4-7.5-9.6-.9-.8-4-3.6-9.4-8.5-5.4-4.3-9.2-6.9-11.4-7.9-3.3-1.5-7.6-3.5-10.4-4.3-2.7-.8-6.6-2.3-8.1-2.7S81.6-.1 74.7 0 56.6 2 54.5 2.6C53 3 48.8 4.5 41.9 7.2c-3.9 2-6.7 3.6-8.6 4.9-2.8 1.9-6.1 5-8.6 7s-4.9 4.7-6.1 6c-1.2 1.3-4.4 5.9-6 8C11 35.2 7.8 41.4 7 43.2c-.8 1.8-1.8 4.5-2.7 7-.9 2.6-1.8 4.9-2.5 8.1-.7 3.2-1.3 5.9-1.4 8-.1 1.4-.1 4.8-.2 10.1.1 5.1.5 9.1 1 12.2.8 4.6 4.6 15.4 5.2 17.1s4.4 8.4 5.9 10.8c1.5 2.5 6.9 8.9 8.9 10.6 2 1.6 6.4 6.1 9.6 8.3 3.2 2.1 9.9 6.3 12.4 7.5 2.5 1.2 7.5 3.2 9.8 3.5 2.3.4 7.2 1.7 10.2 1.8 2 .1 4.2 0 6.5-.1l-3.3-1.6-7.4-.3-4.5-.8c-4-1.8-6.6-2.8-7.8-3-1.8-.3-8-4.3-9.4-4.8-1-.3-3.4-2.1-7.4-5.3l-6.2-5.6-5.3-5.7-5.4-7.3c-3.3-6.1-5.1-9.7-5.6-10.9-.7-1.7-3.9-10.7-4-12.3C3.1 89 2 80.1 2 77.7c0-2.3-.2-7.6-.1-9 .1-1 1.1-6.2 2.9-15.5 2.6-5.9 4.3-9.6 5-11.2.7-1.6 2.7-5.2 6.1-10.8l7.9-8.9c3.9-3.7 6.8-6.1 8.4-7.3 2.5-1.7 10.6-6.6 19.4-9.1s18.8-4 20.8-3.8c2 .2 11.2-.3 13.6.5s7.3 1.8 10.8 2.9c2.3.7 6.7 2.5 13.2 5.5 5.8 3.5 9.2 5.9 10.1 7.1 1.5 1.9 7.9 7 9.7 9.2 1.8 2.2 6.8 9 7.4 10.5.6 1.5 4.9 7.8 6 11.7 1.1 3.9 2.9 9.8 3.4 14.6.5 4.7.9 8.1.7 9.7-.2 1.1-.1 2.2.2 3.3.2.6.7 1.4 1.4 2.1z"/>
  <path id="shape15" class="st8" d="M148.9 74.6l-2.8-4.1-4.1-.4-.8-.7 3.4-3.8 1.4-3.2c-2.7.7-5.2 1.1-7.5 1.1-3.5.1-9.7.2-12 .3-1.5 0-2.8-.5-4-1.4 2.7-.5 4.6-1.3 5.8-2.3 1.2-1 3.6-3 7-6l1.3-3.7-.3-1.3c-3.1 1.4-5.6 2.1-7.4 2.1-2.8.1-14 .2-16.8.6-1.9.3-3.4.2-4.3-.3-6.8-3.3-10.7-5.1-11.9-5.2-1.8-.2-10.9-1.1-14.2-.8-3.3.4-8.8-.6-11.4-.3-2.6.3-3.1.1-5.7 3.1-2.5 2.9-8.3 8-11.2 10.1-3 2.1-15.2 8.6-19.2 10.4S20 73.3 17.3 74.2c-2.7.9-5 1.2-6.5 4.6-1.5 3.4-3.3 8.8-1.7 13 1.6 4.2 2.3 6.8 4.3 9.5 1.3 1.8 2.4 3.2 3.1 4.2l.8 2.1 3.8 4.4 10.3 5.1 8.4 2.7L48 127l6.8 5.2 7.6 3.9 4.2 2.2c.7 1.5 1.5 2.9 2.5 4.2 1 1.3 4.7 3.3 11.1 5.9l4-.8-10.4-4.8-5.4-5.4 2.2-.2 5.2 1.1 14.5-1.8c4.1-.7 6.9-1.8 8.3-3.2 1.4-1.4 2.9-2.9 4.5-4.4l-3.3.1c-1.9 1.7-3.5 2.9-5 3.8-1.5.9-5.1 2-11 3.4l-12-.3-8.1-1.2-6.6-3.1-6.2-4.5-4.8-5.2-5.8-4.9-8.3-1.6-7.1-3.3-5-3.5-2.2-3.6 4.2-.8 3.1-1.4 3.6 2.6 1.6 2 1.5-2.7 3.1-.5 7.4 6.4 1.6-6 9.2-.1 11-1.7 11.1-2 6.5-2.1 1 .8 2.1 4.4 2 2.3 2-3.7 2.6-3.2 4.7-.9 2.3-1.4 1.5 3.3 1.7 3 1-4.2 2-2.5c2.6-.7 4.4-1.8 5.4-3.1s2.4-3.5 4.1-6.5c0-2.2-1-3.4-2.8-3.5-1.8-.2-3.5 0-5 .5l.4 1.3 2.3.9 1.3 1.6-1.2 3.4-3.5 2.8-2.8 1.5-1.4 2.7-.4 1.5-1.9-4.1-5 2.1-4.6.8-2.9 4.2-4.9-5.5c-1.2-.3-2.6-.2-4.2.4-1.6.6-3.5 1.3-5.7 2.1l-14.4 2.6-10.8.8-3.1-.6-2 3.5-.3 1.4-5.3-4.6L34 101l-3.6 2.4-1.2.6-3.7-2.7-2.1-.2-6.4 2.5-4.3-6.1-2-11.6 2.4-7.6c2.9-1.8 5.6-2.9 8-3.3 2.4-.4 7.4-1.8 15.2-4.4l15.8-8.8 11.2-9.3 4.5-4.8c8 0 13.1-.1 15.5-.2 2.4-.1 6.3 0 11.8.3 3.3 1.9 5.6 3.1 6.9 3.5s4.5 1.5 9.7 3.3c4.9-.6 8-1 9.5-1.2 1.5-.2 4.6-.2 9.4-.1l2.6-.8-3.6 3.8-5.6 3.8-3.9 1.7-.9.5c2.1 2 3.7 3.1 4.9 3.3 1.8.3 6.7.3 8.5 0 1.2-.2 3.9-.3 8.1-.1l2.1-.9-4.3 4.9-2.4 1.5 3.2 1.9 4.6.3c.5.2 2.1.7 5 1.4z"/>
  <path id="shape16" class="st8" d="M18.7 85.9c-1.6.9-1.9 1.6-.9 2.3 1 .7 2.1 1.2 3.5 1.6l2 2.1 1 .4-.4-3-2.1-2.3c-.5-.1-1.5-.5-3.1-1.1z"/>
  <path id="shape17" class="st8" d="M68.1 71.9c1.2-1.6 2.7-2.8 4.7-3.7 2.9-1.4 4.2-3.4 8.2-4.2 4-.9 3.3-1.2 6.1-2.1 1.8-.6 3-.9 3.7-.8l-.4-1.5c-.5-.8-1.6-.9-3.2-.4-2.4.8-3.9 1.4-6.3 2.6-2.5 1.1-5.2 2.1-7.4 3.4-1.4.8-2.8 1.7-4.2 2.7L67 69.3c-.3.6.1 1.5 1.1 2.6z"/>
  <path id="shape18" class="st8" d="M90.1 59.6c1.7 1.3 2.7 2.8 3.1 4.4.6 2.4 2 4.7 1.7 7.2-.2 1.7-.6 3.9-1.3 6.8l-3.2 3.7c-1.8 1.3-3.4 2.2-5 2.6-2.4.6-3.2.8-5.9.5-2.7-.3-4.7-.5-6.6-1.9-1.3-.9-2.7-2.4-4.2-4.5l-1.4-4.1v-4.4l1.4-.4c-.3 1.2-.4 2.4-.2 3.6.1 1.1.8 3 1.9 5.5l4.3 3.7c2.4.6 4.2.9 5.5.9 1.9-.1 4.5-.1 6.8-1.3 1.5-.8 3.2-2.3 5-4.5 1.1-1.2 1.6-2.7 1.4-4.4-.2-2.6-.2-3.4-1.1-5.7-.6-1.5-1.3-3.2-2.1-5.1l-2.4-1.6c-.1-.2.8-.5 2.3-1z"/>
  <path id="shape19" class="st8" d="M82.3 67.9l-2.1 1.9-.4 4.1.3 3.6.4 2.3 1.9 1.8 1.5-1.7.1-4.9-.2-5.1c0-.2-.5-.8-1.5-2z"/>
  <path id="shape20" class="st8" d="M147.7 76.1c.4 3.1.5 5.2.5 6.5-.1 1.9-.8 6.8-1.4 8.6-.6 1.9-5.2 9.6-6.7 12-1.5 2.4-9.7 12.4-12.4 15.4-1.8 2-6.7 6.2-14.7 12.8L98 141l-14 6-10.5 1.1-5.2-1.1-1.4-.5-.4 1.6 5.4.8 8.4.3 16.5-5.3 11.8-7.6 18.2-14.3c9.1-10.3 14.1-16 14.8-17.2 1-1.8 7.1-10.9 7.5-13.3.2-1.5.4-4.7.4-9.5l-.7-7.7c.1.1-.3.7-1.1 1.8z"/>
  <path id="shape21" class="st8" d="M66.3 147l3 4.8 6.9 1.5c6.8.1 11-.1 12.6-.6 2.4-.8 20.2-9.1 21.9-10.4 1.2-.8 4.1-3 8.6-6.6 5.9-4.5 9.5-7.4 10.9-8.9 2.1-2.1 8-7.2 9.7-9.7 1.6-2.5 5.2-7.2 6.6-9.7.9-1.7 3-5.6 6.1-11.9 1.5-5.8 1.9-9.6 1.3-11.3-.6-1.7-1.2-3.9-1.8-6.6l-1.9-3.6-1.9-1 .9-1.8 3.4 3.1 3.1 8.2c.5 4.4.5 7.3-.2 8.8-.9 2.3-2.7 9.1-4.4 11.8-1.1 1.8-4.2 6.7-9.2 14.7l-5.8 5.7c-6.8 6.6-10.8 10.4-11.9 11.4-1.7 1.5-13.1 9-14.8 10.1-1.7 1.1-5.4 3-9.1 5-3.7 2-9.3 4-11.4 4.5-2.1.5-5.2.4-7.4.8-1.5.3-4.6.2-9.3-.4l-4.5-2.7-3.7-4.5c1-.1 1.8-.3 2.3-.7z"/>
  <path id="shape22" class="st8" d="M70.6 153.4l1.5 3.7 3.8 4.6 3.7 2 .6.8L78 166l-3.9-3.3-4.4-5.7-1.1-5c.2.5.8.9 2 1.4z"/>
  <path id="shape23" class="st8" d="M68.9 152.7c-2.9.1-5.1.3-6.6.6s-2.8.6-4 .9l-1.1 1.4.8 1.6 1.9-1.4c1.9-.5 3.5-.8 4.8-1 1.3-.2 2.8-.2 4.5-.1.7 0 .6-.6-.3-2z"/>
  <path id="shape24" class="st8" d="M76.6 183.6c-1.2.4-2.5 1-4 1.7-1.1.6-2.3.9-3.6 1s-2-.1-2-.5l1.2-1.6h2.7l2.8-.9c.7-.3 1.6-.2 2.9.3z"/>
  <path id="shape25" class="st8" d="M58.7 162.4l3.4-2.5c.6-1.4.1-1.7-1.3-1.1-2.1.9-3.2 1.1-5 3.4-1.2 1.5-2.4 2.8-3.7 3.8l-2.4 2.3c-.4 1-.6 2.1-.5 3.4.1 1.3.4 2.7 1 4.3l1.5 2.8 2.3-2.1 2.9-2.9c4.9-.4 7.9-.8 9.1-1 1.2-.3 2.1 0 2.7.8l.9 8.2-2.7 2.3-.8 3.8-1.9 2.7-5 1.7-2.9.8-3.6 2.6-10.2-7.1-1.1-4 1.4-2.1-3.9-6.9 2.6-4 2.8-3.3c-.7-2-1.4-2.4-2.1-1.2-.7 1.2-2.3 3.5-4.7 6.9-1 .3-1.1 1.2-.4 2.8 1.1 2.3 2.6 2.6 2.6 4.4 0 1.8-.5 3.2.1 5.6.4 1.6 2.3 3.7 5.9 6.4l6.5 4.1c1.6-.9 3.1-1.6 4.5-2.1 2.1-.8 3.3-.2 5.8-1.1 1.7-.6 3.5-1.8 5.6-3.6-.5-1.7-.5-3.1-.1-4.3.4-1.2 1.1-2.2 2.3-2.9 1.1-1.1 1.5-2.3 1.1-3.6-.4-1.3-.8-3.9-1.4-7.7.4-1.3-.8-1.6-3.6-1-2.9.6-5.8 1.2-9 1.8l-4.3 2.7-2.1-3.2c.1-2.1.8-3.6 2-4.5 1.9-1.5 2.2-1.7 5.7-5.4z"/>
  <path id="shape26" class="st8" d="M60.7 159.8l-2.5-3.5-.8-2.6-1.6-2.9c-1.3-1.3-2.8-1.3-4.6.1-1.8 1.4-3.7 3-5.7 4.8-2.9 2.3-4.7 4-5.3 5.2-.9 1.7-1.2 2.3-.5 3.6.5.9 1.7 1.6 3.7 2.2l2.2 2.2 3.4 2.4 1 1.3v-2.9l-3.7-2.7-3.2-1.9-1.9-1.9c.4-1.8 1.4-3.3 2.9-4.5 2.3-1.8 5.8-4.9 7.6-5.9 1.8-1 2.8-2.9 3.4-.8.4 1.4.9 3.1 1.6 5.3l1.9 3.1c.4.4 1.1.2 2.1-.6z"/>
  <path id="shape27" class="st8" d="M81.6 179c1.9-1 4-2 5.7-3.3 1.2-.9 3.5-2.5 6.9-4.8l2.4-2.7 2.6-2.2.8 2.1c-1.1.2-2.2.9-3.4 2.2-1.2 1.3-3.3 3-6.1 5-2.1 1.5-3.7 2.6-5 3.3-1.2.7-1.9 1.3-2 1.7-.4.1-1-.3-1.9-1.3z"/>
  <path id="shape28" class="st8" d="M97.1 168.5l-2-2.7-1.3-3.6-1-2.7-2.4-1.4c-.9.3-2.2.9-4.1 1.7-2.8 1.2-3.9 2.2-5.7 3.7-1.2 1-2.1 1.7-2.8 1.9l-2.8 2.9c-.9.5-1.1 1.3-.6 2.4.5 1.1 1.4 2.2 2.5 3.1 1.5-.1 2.5.5 3 1.8s1.1 2.2 1.8 2.8l1.2 1.1 1-1-2.1-2.7-3.1-2.9c-1.1.2-1.9-.3-2.2-1.6-.4-1.2-.3-2.5.3-3.7l7.8-5.1c2.4-2.5 4.2-3.4 5.4-2.9 1.2.6 2 1.5 2.7 3l1.6 3.8c1.1 2.2 1.8 3.2 2.1 3.1.3-.2.6-.5.7-1z"/>
  <path id="shape29" class="st8" d="M112.4 165.3c-4.9-4.1-7.8-6.2-8.7-6.2-1.4 0-4.5.1-5.9.8l-4.4 2.2.5 2.1c.7-.7 1.5-1.3 2.5-1.8 1.4-.7 2.7-1.7 4.6-1.6 1.2.1 2.6.2 4.1.4l3.3 2.4 3.4 3.4c-.1-.1.2-.6.6-1.7z"/>
  <path id="shape30" class="st8" d="M77.6 173.7c-.9 1.1-1.5 2.2-1.9 3.3-.6 1.7-1.3 2.6-1.3 4 0 .9.3 1.8.8 2.8l3.3 3.3c-1.8 2.3-2.4 4-1.8 4.9.5 1 2 2.3 4.3 3.9l1.4 2.6c2.9 1.4 4.9 1.8 6.1 1.2 1.2-.6 3.6-1.5 7.4-2.7l7.3 1.4c6.1-5.9 9.4-9.3 9.9-10.1.7-1.3 4.3-5.8 4.5-7.2.1-.9.1-2 0-3.3l-1.4.5c-.2 1.8-.5 3.1-1 3.9-.5.9-2.3 3.6-5.5 8.1l-6.3 5.8c-2.8-.8-4.8-1.1-6-1.1-1.7.1-3.5.8-5.8 1.8s-4.4 2.2-5.8 1.6c-.9-.4-2.1-1.2-3.5-2.4l-3.6-4.9 2.4-4.2c-2.9-2.4-4.4-4.1-4.5-5-.1-1 .5-3.1 1.8-6.3l.9-1.4c.2.1-.4-.2-1.7-.5z"/>
  <path id="shape31" class="st8" d="M78.7 186.7l-20.4 17c-.7.5-1.4.7-2.1.8-.7 0-3.4-.3-8.3-1-1.4-1.4-2.3-2.6-2.6-3.8-.5-1.8-.4-2.3.5-3.4.6-.7 1.3-1.6 2.2-2.7l1.7.8-2.4 2.3c-.7 1-.9 1.7-.7 2.1.2.4.8 1.5 1.9 3.2 4.5.7 7 .9 7.7.6.6-.3 2.4-1.6 5.4-3.7l15.8-13.7c.2-.2.6.4 1.3 1.5z"/>
  <path id="shape32" class="st8" d="M125.1 149.8l1.8-1.1-.3-5.4 4.1-8.6c7.9-8.6 12.6-13.2 14.1-14 2.3-1.1 12.8-3 16-2.4 3.2.6 5.4 2.5 6.5 4.9 1.1 2.4 7.7 17.1 7.9 19.4.2 1.5.4 8.8.6 21.9-1.7 2.7-5 6-9.6 9.9-4.7 3.9-9.5 7.1-14.5 9.5-7.4 1-12.1 1.4-14.1 1.1-2-.3-7.1-1.4-15.4-3.3-3.4-2.7-5.5-4.7-6.4-6.1-.9-1.4-1.9-4.4-2.9-9 1.2-3.3 2.7-5.7 4.3-7.3 2.5-2.4 7.9-9 15.9-11s13.4-2.3 15.6-1.9c1.4.3 4.2.5 8.2.6-.3-1.3-1.9-2.1-4.8-2.3-4.4-.4-7.4-.7-9.9.1-1.7.6-5.2 1.4-10.7 2.5l-4.5 1.4-1.9 1.1-9.5 9.5-4 6.4v1.4l.5 4.3 4.6 8.1 5.5 3.7c9.1 2.2 14.6 3.4 16.4 3.5 1.8.1 7.2-.4 16.1-1.4 13.8-9.2 21.2-15.2 22.2-18 1.5-4.3 1.7-13.7 1.3-16.5-.4-2.8-.2-8.6-2.4-12.7-2.1-4.1-4.3-11.3-6.3-14.8s-3.5-6.6-5.9-6.8c-2.5-.2-11.3-1.3-17.2 1.6-5.8 2.9-8.1 6.2-10.7 9.3-2.6 3.1-5.5 5.1-7.3 8.8-1.8 3.8-2.8 4.6-3.3 7.2-.3 1.7-.5 2.8-.4 3.3-.3.6 0 1.7.4 3.1z"/>
  <path id="shape33" class="st8" d="M153.2 76.4l4.6 3.1c3.5 4.9 5.5 7.9 5.8 9.1.6 1.7 5.6 11.8 6.3 13.9.5 1.4 3.8 8.6 10 21.6l.4 13-3.5 3.8-1.6-1.1 3.6-3.8c.1-6-.1-9.5-.5-10.7-.6-1.7-7-15.7-7.9-17.4-.6-1.2-4.3-8.8-11.3-22.9l-4.9-4.8c-.4-.2-.8-1.5-1-3.8z"/>
  <path id="shape34" class="st8" d="M138.7 186.2l-48 26.3-1.9-.7-5.1-7.6-.1-3.4 2-1.3 2.2.3-2.4 1.8c-.2 1 .2 2.2 1 3.6s2 3 3.6 4.8l45.7-24.3c-.2-.1.9.1 3 .5z"/>
  <path id="shape35" class="st8" d="M179.1 124.3l8.2-6.9c1.8-1.4 3.1-1.5 3.7-.3s3.2 5.8 7.8 13.7l.9 2.5.9 14.3-3.3 2.7-20.6 13.2.3-2.1 20.7-13.8.1-15-7.5-13.3c-.9-1-1.9-1.1-2.8-.3-.9.7-3.7 3.3-8.2 7.8.1.1 0-.8-.2-2.5z"/>
  <path id="shape36" class="st8" d="M148.2 68.6l14.1-13c2.9-1.7 5.4-2.6 7.6-2.6 2.2 0 4.2.3 6 .9L198.8 64c3.2 1.5 5.3 2.8 6.5 3.9 1.1 1.1 2.5 3.1 4.1 5.9l25 50.7c.9 2.6 1.1 4.6.7 6.1-.4 1.5-1.1 3.3-2.1 5.4l-30.8 29.2c-1 1.2-2.5 1.7-4.5 1.6-2-.1-3.6-.2-5-.4l.6-2.1c1.8.7 3.4.7 5 .2 1.6-.5 3-1.1 4.2-1.9l29.2-28c1.1-1.8 1.6-3.5 1.6-5.2 0-1.7-.2-3.2-.6-4.6L206 72c-.8-2-2-3.3-3.4-3.8s-2.8-1.3-4.2-2.5l-25-10.4c-1.4-.1-2.8-.1-4.3 0s-3.4.7-5.7 1.6l-15.1 14c-.1 0-.1-.8-.1-2.3z"/>
  <path id="shape37" class="st8" d="M167.5 100.2l27.6-26.9c.8-1.2 1.2-2.4 1.3-3.6.1-1.2.1-2.2.2-2.9 1.1.1 1.7.9 1.6 2.4 0 2.2-.3 3.8-1.2 4.7-1 .9-4.2 3.7-5.1 4.6-.6.6-8.3 8.2-23.2 22.8-.2.1-.6-.3-1.2-1.1z"/>
  <path id="shape38" class="st8" d="M169.3 103.7l28.9-26.1c1.6-1.1 3.1-1.6 4.5-1.5 1.4.1 2.4.2 3 .2l.4.8c-.2.1-.8.2-1.9.3-1.6.1-2.5-.2-4 .8s-3.5 2.8-5.1 3.9c-1 .7-7.3 6.4-18.9 17.1l-6.3 5.9s-.3-.5-.6-1.4z"/>
  <path id="shape42" class="st8" d="M189.7 154.3l2.5-1.7c1.4 6 2.1 10.1 2.1 12.6-.1 3.7-.5 24-.8 25.6-.2 1.1-.7 2.6-1.5 4.5-11.4 4.8-19.4 7.5-23.8 8.3-6.6 1.2-20.2 2.2-22.6 3-1.6.5-5.3.4-11.3-.2-10.1-2.5-15.7-4-16.6-4.3-1-.4-2.2-1.4-3.7-3 1.3-1.5 2.2-2 2.7-1.6.7.7 2.9 3.2 7 4.4 4 1.2 13.8 3.2 18.2 3.2 4.4 0 18.5-1.7 21.5-2.5 3-.9 18-4.1 19.8-5.4 1.9-1.3 7.3-2.1 7.8-3.9.5-1.9 1.6-9.4 1.3-11.7-.2-2.3.8-10.9.2-12.3-.6-1.4-.3-8.3-.9-10.5-.7-2.2-.7-2.2-1.9-4.5z"/>
  <path id="shape43" class="st8" d="M192.6 191.3c.9 2 1.6 4.5 2.1 7.4.8 4.5 1.9 12.7 2.6 16.3.7 3.6 1.6 9.9 1.7 12.1.1 2.2.5 22.7.5 24.9 0 1.5-.4 3.6-1 6.3-4 3-6.7 4.6-8.2 4.8-1.5.2-4.3.5-8.2.9-3.6-2.6-6.6-4.8-9-6.5-3.5-2.5-9.2-9.1-11.2-10.3-2-1.3-11.2-7.8-12.9-9.1-1.2-.9-4.1-4.4-8.8-10.7-1.2 2.6-2.5 4.9-3.8 7-1.3 2-4.1 5.3-8.4 9.8l-1.8 1.2c2.9 5.9 4.5 9.9 4.8 12.1.2 2.2.3 5.2.2 9.1l-7 7.4-6.2 1.3c-4.7-1.7-9-3.9-12.7-6.6-5.6-4.1-11.2-8.9-13.6-12.4-1.6-2.3-4.1-7-7.5-14 1.2-8.1 2.6-13.5 4.1-16.5 2.3-4.4 8-14.1 8.8-16.2.5-1.4 1.5-2.8 2.9-4.3l1.4.2C93.2 218.5 88.8 227 88 231c-1.1 6-2.7 8.6-2.1 11.3.6 2.7 3.1 7.9 4.5 9.9s13.6 14.8 18.3 17c4.7 2.2 9.7 4.5 11.6 3.5 1.3-.7 3.8-2.4 7.6-5.1 1.1-3.3 1.3-6.2.7-8.7-.6-2.6-1.6-6.2-3-10.9l-1.3-2.1c-6.4 2.7-10.2 3.7-11.4 3.2-1.7-.9-3-.3 1.4-1.7 2.9-.9 6.8-2.2 11.6-4 6-5.5 9.3-9.1 9.7-10.9.4-1.8 1.4-4.3 2.9-7.6l1.5-1.6c2.6 4.5 4.9 7.7 6.8 9.7 2.9 2.9 17.6 13.2 19.9 14.9 2.3 1.7 6.4 8.8 9.9 10.2 3.5 1.4 5 4.5 8.1 4 3.1-.5 9.6-1.6 10.7-3.7 1.1-2.1 2.5-4.7 2.3-8.1-.2-3.4.1-21.7-.5-24.4-.6-2.7-1.7-14.2-2.9-17.9-.8-2.5-1.7-7.2-2.7-14-.1-.5.2-1.4 1-2.7z"/>
  <path id="shape44" class="st8" d="M225.6 142.1l2-2.1 5.6 2 6.4 4c2.1 1.9 3.2 3.8 3.1 5.5-.1 2.7-.4 8.8-2.5 12.6-2.1 3.8-4.5 7.1-7.3 8.7-2.8 1.6-7.6 4.7-10 5.4-2.4.6-8.6.7-11.2-.8-2.7-1.5-3.7-1.6-4.6-3.5-.8-1.9-2.8-11.3-1.6-13.2.8-1.3 1.6-1.8 2.4-1.6-.7 5.2-.7 8.9 0 11.2 1.1 3.4 3.6 5.4 5.5 5.8 1.9.4 8 .5 11.3-1.2 3.3-1.7 11.3-5.9 12.5-9.1 1.2-3.2 3-6.6 3.1-10.2.1-3.6.9-5.3-1.3-7-2.2-1.7-5.5-4.5-7.9-5-2.3-.5-2.3-.5-5.5-1.5z"/>
  <path id="shape45" class="st8" d="M110.1 270.7l-13.9 9.5c-.7.7-1 1.5-1 2.3 0 .8.4 2.3 1.3 4.5l1.8 1.1 32.7-.3c2-1 3.1-1.9 3.5-2.7.5-1.2 1.7-5.5 1.6-7.4-.1-1.8-3.2-11.8-4.6-12.8-1-.7-1.6.1-2 2.4 1.7.5 2.7 1.4 3 2.8.5 2.1 1.7 6.5 1.3 8.5-.4 2 0 4.9-1.3 5.7s-1.5 2.3-2.8 2c-.9-.2-10.8-.1-29.8.4-2.7-1.8-3.6-3.3-2.6-4.4.9-1.2 3.1-2.8 6.4-4.8l8.3-5.7c-.2-.4-.7-.8-1.9-1.1z"/>
  <path id="shape46" class="st8" d="M180.6 262.1c-.5 1.6-2.4 7.8-3.3 10.5-.9 2.7-3.5 7.5-4 9.2-.3 1.2-.7 2.1-1.1 2.8l2.1 3 .9.3 6.8-.1 20.8-13.9c.1-3.6-.2-6.7-1-9.1-1.2-3.6-2.1-7-3.3-6.9-.8.1-1.2.4-1.2 1 2.3 4.4 3.5 7 3.5 8 .1.9-.1 2.9-.6 6l-17.8 13.3-4.9.7c-2.2-.7-3.3-1.5-3.2-2.4.2-1.4 4.4-10.4 5.1-13.2.5-1.9 1.3-4.4 2.3-7.7 0-.9-.4-1.3-1.1-1.5z"/>
  <path id="shape47" class="st8" d="M194.1 202.4c7 1.4 12.3 2.3 15.9 2.5 5.4.3 14 .8 26.9-4.3 12.9-5.1 25.6-13.5 29.6-18.1 4-4.6 9.7-9.6 13.4-18 3.7-8.4 6.9-17 7.2-24.8.4-7.9 1.3-6.9 0-18.1-1.3-11.2-6.1-24-8.6-28.1-2.5-4.1-7.6-13.4-18.4-21.6-10.8-8.1-19.3-12.1-27.5-14.2-8.2-2.1-9.8-2.2-11.7-1.6-1.9.5-3.1.4-5.4 2.7-1.6 1.6-3 2.9-4.2 4.1l-.5 1.5 7.5 1.3 11.3 8.8.7 2.4c2.2-2.1 3.9-3.4 5-3.9 1.2-.5 1.8-.7 1.8-.6.5 2.5.4 4.4-.4 5.6-.8 1.2-1.5 2.5-2.1 3.8l-.3.9c2.1 0 3.8.5 5.1 1.3s4.2 1.3 8.9 1.5l3.2-.5 4.9 9.7c.3 1.7-.6 3.1-2.8 4-3.3 1.4-5.4 2.7-7.5 2.4-1.4-.2-2.4-.3-3.1-.5 1 2.7 2.3 4.7 3.9 5.9 2.4 1.8 5.7 4.1 10 4 2.9-.1 4.5.1 5 .5 1.8 3.9 2.6 6.8 2.2 8.7-.4 1.9-.9 3.5-1.5 4.7-4.1 1.9-7.3 2.5-9.5 1.7s-3.8-1.6-4.7-2.5c-.5 1.2.1 2.7 1.6 4.6 2.3 2.8 2.2 6 5.3 7.7 2.1 1.1 3.9 2 5.5 2.8.2 1.5-.4 3-1.6 4.5-1.2 1.5-2.6 3-4.2 4.5l-4.3-.1c-2.2-1.4-3.5-3.5-4.1-6.1s-.8-5.1-.8-7.3c-1.2.6-2.1 1.7-2.9 3.3-.8 1.6-1.6 3.6-2.4 6l-.8 3.7c.8 2.2 1.2 2.7 1.4 1.5.2-1.8.8-5.8 1.9-8.1.7-1.5 1.5-2.7 2.2-3.3l1.4 8.2 3.9 3.5h5.3l7-9.6c-3.9-2.5-6.3-4.4-7.3-5.7-1-1.3-2.7-3.6-5.1-7 3.5 1.3 6.4 1.6 8.7.8 2.3-.8 4.1-1.9 5.5-3.4l.7-7.6-2.7-7.1c-2.7-.7-5.3-1.1-7.8-1.2-2.6-.1-4.8-1.1-6.6-2.8l-2.7-2.4c6.1-1.6 9.7-3.1 10.9-4.5 1.1-1.5 1.6-3 1.5-4.6l-5.1-9.3-2.3-1.4c-4.7.9-7.6 1.1-8.7.6-1.1-.5-2.8-1.2-4.8-2.2 1.4-2.6 2-4.7 1.9-6.2-.1-1.5-.3-3-.6-4.4-1.6.3-3.2.9-4.6 1.8-1.4.9-2.5 1.4-3.1 1.4-4.2-3.5-6.9-5.8-8-6.7-1.1-.9-3.1-2.1-6-3.7l-3.3-.5c3.1-3.8 6-5.7 8.7-5.7 4.1 0 17 3.9 20.8 6.1 3.8 2.2 14.4 5.7 21.1 13.7s14.2 14.7 18.2 31 5.1 15.9 2.7 30.2c-2.4 14.3-2.6 21.3-12.1 33.3-9.5 11.9-14.5 17.4-25.5 22.6-11 5.3-16.7 8.1-26.9 8.7-10.2.6-20.9-1.6-23.7-2-1.8-.3-2.8-.7-3-1.2 0 0 .1.8.5 2.4z"/>
  <path id="shape48" class="st8" d="M68.1 147.6c-1-.6-.9-1.8.1-3.5s1.8-2.8 2.3-3.4l-1.7-.8c-2.1 3.7-2.9 6-2.3 7 .8 1.6.8 1.6 1.6.7z"/>
  <path class="st9" d="M218.6 123.6l-8.8 7.8-.6-1.1-6.3-.3 5.5 9.5 16.4-14.7-1.3-2.6-5.9-.5zM207.6 91.4l-18.2 15.2 1.7 2.9 6.8.7-1.2-2.1 9.4-8 .7 1.3 6.3.7z"/>
  <path class="st9" d="M213.2 113.5l-27.8-2.6 10.8 7.4 5.7 9.8 6.3.4-5.5-9.7 25.6 2-9-6.8-5.2-9.9-6.3-.8z"/>
  <g id="head_shadows" fill="#7e8f71">
    <path id="chin_shadow" d="m 135.38672,99.533203 C 116.42872,121.56713 83.474369,135.0505 56.132812,130.89844 l 0.966797,0.70117 6.6,3.1 8.101562,1.20117 12,0.3 c 5.9,-1.4 9.5,-2.49844 11,-3.4 1.5,-0.9 3.1,-2.1 5,-3.8 l 3.298829,-0.0996 c -1.6,1.5 -3.1,3 -4.5,4.4 -1.4,1.4 -4.2,2.5 -8.3,3.2 l -14.5,1.8 -5.201172,-1.10156 -2.2,0.20117 1.658203,1.6582 c 34.162336,8.39151 62.488166,-31.91899 63.841796,-33.87885 0.63352,-1.81718 1.50893,-3.69596 1.48633,-5.646487 z"/>
    <path id="nostril_shadow" d="m 24.186967,87.718065 c 0.963412,1.735176 0.508497,3.830479 1.045659,5.607253 0.117096,0.133649 1.313254,0.142101 1.534276,0.116992 0.408495,-0.861345 0.541009,-1.705609 0.391377,-2.649764 -0.783753,-1.201046 -1.9588,-2.077695 -2.971312,-3.074478 z"/>
    <path id="maw_mid_shadow" d="m 81.6,98.7 -6.5,2.101561 -11.1,2 -11,1.7 -9.2,0.0996 -1.498047,5.61328 c 0.03666,0.0983 0.07017,0.19984 0.1,0.27344 2.9844,-3.47614 16.80718,-6.40695 40.968751,-9.3692 L 82.6,99.5 z"/>
    <path id="maw_canine_shadow" d="m 34.8,104.2 -3.101562,0.5 -1.5,2.70116 c 0.824971,0.32555 2.78689,-1.61206 6.238291,-1.78504 z"/>
    <path id="maw_molar_shadow" d="M 98.3,97 96,98.4 91.3,99.3 88.7,102.5 l -1.904297,3.52344 c 1.234933,0.0666 3.296933,-2.86522 4.605472,-3.91212 2.208123,-1.87672 5.026579,-2.5 7.8,-3.148429 z"/>
    <path id="maw_lip_shadow" d="m 25,102.8 -3.1,1.4 -0.960938,0.18359 c 8.172531,0.62023 2.574839,0.0762 6.720704,0.33958 z"/>
    <path id="maw_cheek_shadow" d="m 113.82617,87.292969 c -1.61409,2.828888 -2.96344,5 -3.92578,6.207031 -1,1.3 -2.8,2.4 -5.4,3.1 l -2,2.5 -0.96484,4.052731 c 0.004,0.0244 0.008,0.0496 0.0137,0.0742 0.83025,-1.06744 2.11252,-3.934659 3.72453,-5.3164 1.05346,-0.90232 2.45947,-1.223442 3.80859,-2.302733 0.70891,-0.562334 5,-5.575192 4.74358,-8.314454 z"/>
    <path id="neck_topspike_shadow" d="m 131.07422,54.744141 c -6.84155,5.7 -18.01728,5.198912 -18.31055,5.492187 1.54482,1.692951 3.8592,2.053395 6.47656,2.101563 -0.0145,-0.01379 -0.0264,-0.02323 -0.041,-0.03711 l 0.9,-0.5 3.9,-1.701172 5.6,-3.8 z"/>
    <path id="neck_basespike_shadow" d="m 142.36719,65.09375 c -2.96321,3.077714 -7.20791,3.785355 -11.17969,4.8125 -0.73122,1.670727 5.49831,1.60863 5.61914,1.568359 0.0163,-0.0054 0.0334,-0.01507 0.0508,-0.02539 L 136.1,71 138.5,69.5 z"/>
  </g>
  <g id="tail_shadows" fill="#576c3b">
    <path id="tail_underside_shadow" d="m 274.51953,169.5 c -11.50162,10.94686 -20.1278,18.9 -36.32617,22 -14.9,2.7632 -38.1451,0.47959 -43.25781,-0.57031 -0.5,-0.0954 -0.98794,-0.26161 -1.41407,-0.53516 -0.007,0.0547 -0.0146,0.32094 -0.0215,0.35742 -0.0861,0.47339 -0.24031,1.0347 -0.4375,1.65625 0.67718,1.78281 1.22749,3.86866 1.63672,6.24219 0.10106,0.56845 0.22867,1.47473 0.33789,2.14453 0.43458,0.12988 0.93097,0.25021 1.5625,0.35547 2.8,0.4 13.50119,2.6 23.70117,2 10.2,-0.6 15.89846,-3.39924 26.89844,-8.7 11,-5.2 16,-10.7 25.5,-22.6 0.65194,-0.82351 1.25223,-1.62 1.82031,-2.4 z"/>
    <path id="tail_base_spike_shadow" d="m 245.2,137.3 c -0.92,1.05207 -0.95168,9.1 3.89574,12.84 1.43082,0.84224 6.55787,0.19815 6.7567,-1.18772 0.21885,-0.25746 -0.15501,0.1981 -0.3636,0.0469 H 250.5 c -1.3,-1.16667 -2.6,-2.33333 -3.9,-3.5 -0.4668,-2.73307 -0.93359,-5.46615 -1.4,-8.2 z"/>
    <path id="tail_lower_spike_shadow" d="m 256.48909,134.6989 c 0.35268,0.46116 1.02828,0.92168 1.5244,1.35292 1.52507,1.21374 3.15316,2.28917 4.78729,3.34857 4.16823,-0.87478 7.17221,-2.96938 9.57973,-6.45 -4.93841,2.42283 -10.54249,2.75259 -15.89142,1.74916 z"/>
    <path id="tail_mid_spike_shadow" d="m 269.70508,99.212891 c -2.26882,5.581559 -7.63729,7.441709 -12.8281,9.141919 1.93097,0.19912 3.84404,0.55842 5.72263,1.04561 4.51526,-1.43545 7.2848,-9.792633 7.10547,-10.187529 z"/>
    <path id="tail_top_spike_shadow" d="m 255.64452,77.875 c -3.49719,4.445886 -9.70643,5.211326 -13.92428,5.889744 0.96768,0.411737 2.05536,0.303086 3.08014,0.260255 1.91639,-0.141553 3.81308,-0.470338 5.7,-0.82578 l 0.54102,0.33 c 2.20283,-1.336284 3.97455,-3.222585 4.6035,-5.654297 z"/>
  </g>
  <g id="suit_base_shadows" fill="#e28918">
    <path id="pants_shadow" d="m 191.81445,195.37695 c -8.13047,3.27218 -16.26104,6.86944 -24.93031,8.44532 -7.62027,1.2128 -15.37561,1.53423 -22.9418,3.03766 -1.40673,0.18851 -6.62831,-0.23068 -2.86226,0.11859 27.02392,3.97538 52.90751,-4.61189 51.16457,-8.88202 -0.14919,-0.90553 -0.29251,-1.81246 -0.4302,-2.71955 z m -77.41015,4.13477 c -1.88997,1.03581 -3.77995,2.07161 -5.67,3.10742 1.28955,-0.50619 19.49762,2.20171 14.83308,1.05543 -2.99477,-0.94857 -6.54532,-1.04533 -8.68333,-3.68 l -0.23732,-0.23588 -0.24254,-0.24689 z"/>
    <path id="left_ankle_shadow" d="m 177.23228,256.56624 c 3.05992,0.76128 7.96053,0.32206 11.32596,-1.43113 5.76605,-3.43 6.06598,-9.35487 8.41702,-14.90723 0.16458,-0.53447 0.0833,0.97652 0.18868,1.36883 -0.54161,4.76268 1.17963,12.99751 -3.25872,16.36305 -1.32818,1.28556 -8.12826,3.75836 -10.97068,2.80185 -1.88381,-1.05436 -4.89069,-2.09406 -5.70225,-4.19537 z"/>
    <path id="right_ankle_shadow" d="m 109.47134,268.34348 c 7.8595,1.33023 16.36265,-3.27902 18.37089,-11.09132 3.40241,15.45518 -16.54675,15.72059 -18.37089,11.09132 z"/>
    <path id="right_knee_shadow" d="m 124.3,245.9 c -5.95514,2.51233 -9.62908,3.53408 -11.08203,3.26367 4.10673,1.33707 7.97692,-0.93329 11.83978,-2.03926 z"/>
    <path id="armpit_shadow" d="m 179.24805,161.86719 -1.39063,0.89062 c -0.23123,1.73667 -0.53913,3.345 -0.95703,4.54297 -1,2.8 -8.40121,8.8 -22.20117,18 -7.66405,0.86113 -12.7157,1.34694 -15.125,1.40234 13.9115,3.04544 37.93117,0.87179 39.67378,-24.83592 z"/>
    <path id="forearm_shadow" d="m 151.41876,177.2 c 7.82,-4.40685 18.31804,-9.17876 21.5094,-18.08828 0.59201,-0.86825 0.67117,-4.55246 1.57627,-2.13262 2.02161,8.37818 -16.83184,32.67428 -47.86508,25.08349 -0.70021,-0.14769 -1.74635,-1.36269 -0.66208,-1.49979 0.21116,0.16623 13.59924,2.50946 25.44149,-3.3628 z"/>
    <path id="helmet_rim_outer_shadow" d="m 155.2,81.179688 c 1.11805,2.979257 0.99603,6.388329 0.53082,9.49274 -1.93623,5.543345 -3.34773,11.387272 -6.9543,16.156222 -2.56613,3.82898 -4.68683,8.01561 -7.53307,11.61834 -6.10399,5.90426 -12.00836,12.05298 -18.47669,17.54865 -10.43723,7.26508 -21.12515,14.69196 -33.432138,18.3934 -3.531603,0.61891 -7.148342,0.84899 -10.721663,1.06727 -2.075068,0.5749 -7.4,-1.49762 -7.463873,-0.70208 34.1,11.2 86.513544,-40.96714 86.978004,-70.708471 -0.9757,-0.955357 -1.95139,-1.910714 -2.92709,-2.866071 z"/>
  </g>
  <g id="suit_trim_shadows" fill="#dbad17">
    <path id="right_shoe_shadow" d="m 133.64062,279.87695 c -0.007,0.004 -0.0382,0.026 -0.041,0.0273 -11.46037,4.1981 -24.10551,4.21638 -36.17,4.65222 0.487767,0.65357 1.312364,1.37035 2.470703,2.14258 19,-0.5 28.898829,-0.59844 29.798829,-0.4 1.3,0.3 1.5,-1.2 2.8,-2 1.04197,-0.64121 0.99542,-2.62887 1.14062,-4.42383 z"/>
    <path id="left_shoe_shadow" d="m 174.4,285.05469 c 0.31617,0.67744 1.36266,1.29303 3.1,1.8457 l 4.9,-0.70117 15.54297,-11.61328 c -0.0406,-0.0233 -0.0801,-0.0443 -0.11133,-0.0547 -8.29479,-1.11888 -13.82101,11.63568 -23.43164,10.52345 z"/>
    <path id="glove_right_fingers_shadow" d="m 66.84375,172.6875 c -0.262426,0.002 -0.543751,0.0383 -0.84375,0.11328 -0.09036,0.0151 -0.262241,0.0375 -0.373047,0.0547 -0.02285,0.45722 1.56,9.68026 -0.283203,11.17383 -4.858759,3.93914 -10.382579,6.55521 -15.789062,9.48047 l 3.144531,2.18945 3.601562,-2.6 2.898438,-0.8 5,-1.70117 1.9,-2.7 0.8,-3.8 2.7,-2.3 -0.9,-8.20117 c -0.45,-0.59987 -1.06819,-0.91709 -1.855469,-0.91211 z"/>
    <path id="glove_right_thumb_shadow" d="m 76,176.3 c -1.607935,1.20171 -3,1.69293 -5,1.54492 0.145884,0.75122 0.286159,1.40803 0.423829,1.85547 0.4,1.3 3.88e-4,2.50156 -1.1,3.60156 -0.445626,0.26 -0.822661,0.56087 -1.140625,0.89844 h 1.740235 l 2.8,-0.89844 c 0.343679,-0.14734 0.737399,-0.19784 1.201172,-0.15234 -0.315983,-0.74715 -0.5,-1.44836 -0.5,-2.14844 0,-1.4 0.7,-2.3 1.3,-4 0.08506,-0.23392 0.184484,-0.46718 0.289062,-0.70117 z"/>
    <path id="glove_left_shadow" d="m 115.5332,177.44922 c -7.56646,6.58723 -22.349362,13.9912 -27.847653,14.71094 -2.664235,-0.52435 -5.016882,-2.84109 -6.710938,-5.03907 l -2.27539,3.97852 L 82.3,196 c 1.4,1.2 2.6,2 3.5,2.4 1.4,0.6 3.5,-0.6 5.8,-1.6 2.3,-1 4.1,-1.7 5.8,-1.8 1.2,0 3.2,0.3 6,1.1 l 6.3,-5.8 c 3.2,-4.5 5,-7.20156 5.5,-8.10156 0.47433,-0.75894 0.76512,-1.98171 0.96484,-3.64063 z"/>
  </g>
  <g id="jetpack_shadows" fill="#2b383b">
    <path id="nozzle_base_shadow" d="m 226.32812,142.32617 -18.52343,17.56055 c -0.0701,0.5637 -0.12887,1.10589 -0.18164,1.63281 0,0 20.29414,-18.70066 20.28906,-18.70703 -0.42697,-0.12674 -0.91653,-0.27826 -1.58399,-0.48633 z"/>
    <path id="nozzle_rim_shadow" d="m 240.01562,151.0957 c -5.53916,13.15069 -15.46865,18.54624 -27.89431,23.48078 12.27234,3.71176 30.00826,-12.93398 27.89428,-23.48078 z m -27.9687,23.38282 c -0.4036,0.11868 -0.33574,0.15878 0,0 z"/>
    <path id="tank_bottomedge_shadow" d="m 228.23047,115.96484 c 0,0 -2.93461,2.57135 -2.9395,2.56059 l 3.00976,2.27539 -4.91992,-0.38476 c 0.003,0.0139 -1.86524,1.61523 -1.86524,1.61523 l 1.98438,0.16797 1.3,2.60156 -16.4,14.7 -2.50195,-4.32031 -5.78516,4.68359 0.48633,7.73633 -3.3,2.70117 -4.91406,3.14844 c 1.16129,5.07606 1.80323,8.75085 1.89453,11.14648 1.4094,0.36281 2.71783,0.31108 4.01953,-0.0957 1.6,-0.5 2.3,-1.1 4.2,-1.9 l 29.2,-28 c 1.1,-1.8 1.60156,-3.5 1.60156,-5.2 0,-1.7 -0.20156,-3.2 -0.60156,-4.6 z"/>
    <path id="tank_topedge_shadow" d="m 198.32031,65.666016 c 0,0 -0.45137,1.834968 -0.45712,1.833984 0.264,0.398532 0.38498,0.963578 0.33594,1.7 0,2.2 -0.3,3.801175 -1.2,4.701172 -1,0.9 -4.2,3.7 -5.1,4.6 -0.59109,0.59109 -8.22909,8.128197 -22.69727,22.30664 0.31533,0.71863 0.58059,1.34332 0.69727,1.69336 0.0279,0.0781 0.15587,0.3624 0.20117,0.47656 l 28.09766,-25.376951 c 1.6,-1.1 3.1,-1.6 4.5,-1.5 1.4,0.1 2.4,0.201172 3,0.201172 L 208,75.945322 206,72 c -0.8,-2 -2,-3.3 -3.4,-3.8 -1.4,-0.5 -2.8,-1.3 -4.2,-2.5 z"/>
    <path id="handle_base_shadow" d="m 197.74609,140.77148 -19.43167,11.36724 c 0.11681,2.07565 0.0724,5.35898 -0.21875,8.53125 l 19.60352,-13.07031 z"/>
    <path id="handle_rail_right_shadow" d="m 75.433594,184.03516 c -0.872467,0.35364 -1.805778,0.78579 -2.833985,1.26562 -1.1,0.6 -2.299611,0.9 -3.6,1 -0.402694,0.0312 -0.746674,0.0314 -1.03125,0 -0.365008,1.176 -0.354302,2.54186 0.130859,4.19141 -2,1.8 -3.9,3 -5.6,3.6 -2.5,0.9 -3.7,0.3 -5.8,1.1 -1.4,0.5 -2.9,1.20156 -4.5,2.10156 -1.3,0.95896 -1.353297,2.47728 -3.625003,4.71097 4.450584,0.69012 6.92908,0.88614 7.625,0.58789 0.6,-0.3 2.4,-1.6 5.4,-3.7 L 76.9707,185.57249 Z"/>
    <path id="handle_rail_left_shadow" d="m 128.43164,184.66797 c -12.85217,9.42059 -26.90569,15.571 -40.8,22.4043 C 88.29233,207.98342 89.070217,208.95399 90,210 l 44.94727,-23.9 c -1.66003,-0.32977 -3.9152,-0.83207 -6.51563,-1.43164 z"/>
    <path id="handle_grip_right_shadow" d="m 56.023438,155.12695 c -0.02121,0.0345 -0.04283,0.0673 -0.06055,0.10547 -1.763351,3.34843 -8.5,9.5 -12.953125,9.77735 l 0.08984,0.0898 3.201172,1.9 3.1,2.25977 c 0.08233,-0.3299 0.177581,-0.65099 0.3,-0.95899 L 52.1,166 c 1.3,-1 2.501174,-2.3 3.701172,-3.8 0.943807,-1.20598 1.69603,-1.83025 2.5,-2.28516 l -1.601562,-2.61328 c -0.252323,-0.79301 -0.470813,-1.50125 -0.675781,-2.17383 z"/>
    <path id="handle_grip_left_shadow" d="m 93.255859,163.92188 c -4.596743,3.50363 -8.623525,7.80667 -14.441406,9.08598 l 2.986328,2.79297 1.714844,2.20313 c 1.320892,-0.69337 2.64336,-1.43155 3.785156,-2.30469 1.2,-0.9 3.5,-2.5 6.9,-4.8 l 1.634765,-1.83984 c -0.371123,-0.48098 -0.87985,-1.35345 -1.533203,-2.66016 z"/>
  </g>
  <g id="bulb_highlights" fill="#e0fffc" style="fill-opacity:0.34507">
    <path id="bulb_highlight_large" d="m 47.881055,10.062857 C 33.397396,17.160614 22.676196,27.432979 14.330976,40.938218 l 6.431798,3.70284 C 29.212647,25.166301 53.368387,14.164789 53.368387,14.164789 z"/>
    <path id="bulb_highlight_small" d="m 12.926219,43.356359 c -1.936998,2.219192 -3.2,4.939005 -4,7.755343 l 6.6086759,3.060177 c 0.647746,-2.698387 2.766051,-6.183526 3.768206,-6.904685 -2.127304,-1.30361 -4.254605,-2.607232 -6.381911,-3.910835 z"/>
  </g>
</svg>
